<?xml version="1.0" encoding="utf-8"?>
<!-- Generator: Adobe Illustrator 15.1.0, SVG Export Plug-In . SVG Version: 6.00 Build 0)  -->
<!DOCTYPE svg PUBLIC "-//W3C//DTD SVG 1.1//EN" "http://www.w3.org/Graphics/SVG/1.1/DTD/svg11.dtd">
<svg version="1.1" id="Layer_1" xmlns="http://www.w3.org/2000/svg" xmlns:xlink="http://www.w3.org/1999/xlink" x="0px" y="0px"
	 width="90px" height="90px" viewBox="0 0 90 90" enable-background="new 0 0 90 90" xml:space="preserve">
<g id="icomoon-ignore">
	<line fill="#FFFFFF" stroke="#449FDB" x1="0" y1="0" x2="0" y2="0"/>
</g>
<path fill="#FFFFFF" d="M78.666,36.282c-0.33,0-0.666-0.111-0.939-0.336c-0.645-0.522-0.744-1.467-0.222-2.109l6.831-8.415
	l-6.816-8.145c-0.537-0.633-0.446-1.581,0.189-2.115c0.633-0.531,1.581-0.447,2.111,0.189l7.611,9.093
	c0.459,0.549,0.465,1.35,0.012,1.908l-7.61,9.372C79.536,36.093,79.102,36.282,78.666,36.282z"/>
<path fill="#FFFFFF" d="M49.254,40.326c-0.359,0-0.72-0.126-1.005-0.387c-0.615-0.555-0.666-1.503-0.108-2.118
	c7.645-8.451,19.627-13.914,30.525-13.914h7.611c0.828,0,1.5,0.672,1.5,1.5c0,0.828-0.672,1.5-1.5,1.5h-7.611
	c-10.086,0-21.195,5.073-28.299,12.927C50.073,40.161,49.662,40.326,49.254,40.326z"/>
<path fill="#FFFFFF" d="M3.783,66.657c-0.828,0-1.5-0.675-1.5-1.5s0.672-1.5,1.5-1.5c11.082,0,25.824-5.958,32.19-13.017
	c0.558-0.615,1.503-0.666,2.121-0.111c0.615,0.555,0.663,1.503,0.111,2.121C31.233,60.369,15.795,66.657,3.783,66.657z"/>
<path fill="#FFFFFF" d="M78.666,75.189c-0.33,0-0.672-0.111-0.945-0.336c-0.645-0.525-0.738-1.471-0.209-2.112l6.803-8.298
	l-6.768-7.672c-0.549-0.623-0.486-1.568,0.135-2.117s1.563-0.489,2.115,0.132l7.611,8.625c0.486,0.552,0.504,1.374,0.039,1.944
	l-7.611,9.281C79.529,75,79.096,75.189,78.666,75.189z"/>
<path fill="#FFFFFF" d="M86.277,65.907h-7.729c-15.525,0-27.168-10.689-38.43-21.021C28.782,34.482,18.075,24.657,3.72,24.657
	c-0.828,0-1.5-0.672-1.5-1.5c0-0.828,0.672-1.5,1.5-1.5c15.525,0,27.168,10.686,38.43,21.021
	c11.334,10.404,22.047,20.229,36.399,20.229h7.729c0.828,0,1.5,0.675,1.5,1.5S87.105,65.907,86.277,65.907z"/>
</svg>
