<?xml version="1.0" encoding="utf-8"?>
<!-- Generator: Adobe Illustrator 16.0.0, SVG Export Plug-In . SVG Version: 6.00 Build 0)  -->
<!DOCTYPE svg PUBLIC "-//W3C//DTD SVG 1.1//EN" "http://www.w3.org/Graphics/SVG/1.1/DTD/svg11.dtd">
<svg version="1.1" id="Layer_1" xmlns="http://www.w3.org/2000/svg" xmlns:xlink="http://www.w3.org/1999/xlink" x="0px" y="0px"
	 width="96px" height="96px" viewBox="0 0 96 96" enable-background="new 0 0 96 96" xml:space="preserve">
<g id="icomoon-ignore">
	<line fill="#FFFFFF" stroke="#449FDB" x1="0" y1="0" x2="0" y2="0"/>
</g>
<path fill="#FFFFFF" d="M4.164,93.832c-0.512,0-1.024-0.191-1.416-0.588c-0.78-0.771-0.78-2.044,0-2.828L30.58,62.588
	c0.78-0.775,2.048-0.775,2.828,0c0.78,0.78,0.78,2.053,0,2.828L5.576,93.244C5.188,93.641,4.676,93.832,4.164,93.832z"/>
<path fill="#FFFFFF" d="M64.164,33.832c-0.512,0-1.023-0.192-1.416-0.588c-0.78-0.776-0.78-2.044,0-2.828L90.576,2.588
	c0.779-0.78,2.052-0.78,2.828,0c0.779,0.78,0.779,2.048,0,2.828L65.576,33.244C65.188,33.64,64.676,33.832,64.164,33.832z"/>
<path fill="#FFFFFF" d="M92,93.832c-0.512,0-1.023-0.191-1.416-0.588L62.748,65.416c-0.775-0.775-0.775-2.048,0-2.828
	c0.779-0.775,2.052-0.775,2.828,0l27.836,27.828c0.775,0.784,0.775,2.057,0,2.828C93.023,93.641,92.512,93.832,92,93.832z"/>
<path fill="#FFFFFF" d="M32,33.832c-0.512,0-1.024-0.192-1.416-0.588L2.752,5.416c-0.78-0.78-0.78-2.048,0-2.828
	c0.78-0.78,2.048-0.78,2.828,0l27.832,27.828c0.78,0.784,0.78,2.052,0,2.828C33.024,33.64,32.512,33.832,32,33.832z"/>
<path fill="#FFFFFF" d="M94,22c-1.1,0-2-0.892-2-2V4H76c-1.1,0-2-0.896-2-2s0.9-2,2-2h18c1.1,0,2,0.896,2,2v18
	C96,21.108,95.1,22,94,22z"/>
<path fill="#FFFFFF" d="M94,96H76c-1.1,0-2-0.9-2-2s0.9-2,2-2h16V76c0-1.107,0.9-2,2-2s2,0.893,2,2v18C96,95.1,95.1,96,94,96z"/>
<path fill="#FFFFFF" d="M2,22c-1.104,0-2-0.892-2-2V2c0-1.104,0.896-2,2-2h18c1.104,0,2,0.896,2,2s-0.896,2-2,2H4v16
	C4,21.108,3.104,22,2,22z"/>
<path fill="#FFFFFF" d="M20,96H2c-1.104,0-2-0.9-2-2V76c0-1.107,0.896-2,2-2s2,0.893,2,2v16h16c1.104,0,2,0.9,2,2S21.104,96,20,96z"
	/>
</svg>
