<?xml version="1.0" encoding="utf-8"?>
<!-- Generator: Adobe Illustrator 16.0.0, SVG Export Plug-In . SVG Version: 6.00 Build 0)  -->
<!DOCTYPE svg PUBLIC "-//W3C//DTD SVG 1.1//EN" "http://www.w3.org/Graphics/SVG/1.1/DTD/svg11.dtd">
<svg version="1.1" id="Layer_1" xmlns="http://www.w3.org/2000/svg" xmlns:xlink="http://www.w3.org/1999/xlink" x="0px" y="0px"
	 width="30px" height="30px" viewBox="0 0 30 30" enable-background="new 0 0 30 30" xml:space="preserve">
<g>
	<path fill="#FFFFFF" d="M14.887,29.875c-3.309,0-6-2.498-6-5.568v-5.285c-1.463-1.23-4.412-4.187-4.412-7.962
		c0-5.285,2.792-10.933,10.627-10.933c7.686,0,10.423,5.647,10.423,10.933c0,3.398-1.687,6.306-4.639,8.021v5.229
		C20.887,27.377,18.195,29.875,14.887,29.875z M15.102,1.125c-8.933,0-9.627,7.602-9.627,9.933c0,3.613,3.236,6.534,4.228,7.342
		c0.117,0.095,0.184,0.235,0.184,0.387v5.52c0,2.521,2.243,4.568,5,4.568s5-2.05,5-4.568v-5.52c0-0.184,0.1-0.352,0.262-0.439
		c2.783-1.513,4.377-4.168,4.377-7.29C24.527,8.728,23.848,1.125,15.102,1.125z"/>
	<path fill="#FFFFFF" d="M22.301,8.469c-0.217,0-0.417-0.142-0.48-0.36c-0.713-2.453-2.364-3.916-4.903-4.347
		c-0.272-0.046-0.457-0.304-0.41-0.577c0.046-0.272,0.302-0.457,0.576-0.409c2.91,0.493,4.88,2.24,5.699,5.053
		c0.075,0.265-0.076,0.542-0.341,0.62C22.395,8.463,22.348,8.469,22.301,8.469z"/>
	<path fill="#FFFFFF" stroke="#000000" stroke-linecap="round" stroke-linejoin="round" stroke-miterlimit="10" d="M15.126,26.875"
		/>
	<path fill="#FFFFFF" d="M19.887,20.145h-10c-0.276,0-0.5-0.224-0.5-0.5c0-0.274,0.224-0.5,0.5-0.5h10c0.275,0,0.5,0.226,0.5,0.5
		C20.387,19.921,20.162,20.145,19.887,20.145z"/>
	<path fill="#FFFFFF" d="M19.887,26.145h-10c-0.276,0-0.5-0.224-0.5-0.5c0-0.274,0.224-0.5,0.5-0.5h10c0.275,0,0.5,0.226,0.5,0.5
		C20.387,25.921,20.162,26.145,19.887,26.145z"/>
	<path fill="#FFFFFF" d="M17.387,19.645c-0.275,0-0.5-0.224-0.5-0.5v-5.411c-0.104-0.048-0.209-0.101-0.309-0.157
		c-0.5-0.281-1.051-0.747-1.44-1.51c-0.341,0.679-0.807,1.121-1.25,1.408v5.669c0,0.275-0.224,0.5-0.5,0.5
		c-0.276,0-0.5-0.225-0.5-0.5v-5.211c-0.458,0.138-0.963,0.208-1.509,0.208l0,0c-1.267,0-2.376-1.208-2.376-2.584
		c0-1.32,1.142-2.479,2.443-2.479c1.37,0,2.443,0.997,2.443,2.27v0.814c0.444-0.519,0.693-1.236,0.746-2.147
		c-0.006-0.12-0.009-0.243-0.009-0.37c0-0.276,0.224-0.5,0.5-0.5s0.521,0.224,0.521,0.5c0,0.127-0.004,0.25-0.01,0.369
		c0.07,1.2,0.49,2.065,1.254,2.58v-1.246c0-1.376,0.924-2.375,2.198-2.375c1.282,0,2.287,1.043,2.287,2.375
		c0,1.265-1.079,2.793-2.419,2.793c-0.375,0-0.73-0.032-1.066-0.096v5.1C17.887,19.421,17.662,19.645,17.387,19.645z M17.887,13.023
		c0.325,0.078,0.682,0.118,1.064,0.118c0.732,0,1.422-1.01,1.422-1.793c0-0.784-0.553-1.375-1.287-1.375
		c-0.824,0-1.199,0.712-1.199,1.375V13.023z M11.444,10.078c-0.755,0-1.443,0.705-1.443,1.479c0,0.732,0.601,1.584,1.375,1.584
		c0.232,0,0.863,0,1.511-0.268v-1.525C12.887,10.553,12.153,10.078,11.444,10.078z"/>
	<path fill="#FFFFFF" d="M20.126,22.969c-0.042,0-0.085-0.006-0.127-0.017L9.26,20.128c-0.267-0.069-0.427-0.345-0.356-0.61
		c0.071-0.268,0.348-0.426,0.61-0.355l10.739,2.822c0.267,0.07,0.427,0.345,0.356,0.611C20.55,22.82,20.348,22.969,20.126,22.969z"
		/>
	<path fill="#FFFFFF" d="M18.262,26.145c-0.046,0-0.092-0.006-0.137-0.019l-8.874-2.5c-0.266-0.075-0.42-0.353-0.346-0.617
		c0.075-0.267,0.354-0.421,0.617-0.347l8.875,2.5c0.267,0.076,0.42,0.354,0.347,0.617C18.68,26.001,18.479,26.145,18.262,26.145z"/>
</g>
</svg>
