<?xml version="1.0" encoding="utf-8"?>
<!-- Generator: Adobe Illustrator 16.0.0, SVG Export Plug-In . SVG Version: 6.00 Build 0)  -->
<!DOCTYPE svg PUBLIC "-//W3C//DTD SVG 1.1//EN" "http://www.w3.org/Graphics/SVG/1.1/DTD/svg11.dtd">
<svg version="1.1" id="Layer_1" xmlns="http://www.w3.org/2000/svg" xmlns:xlink="http://www.w3.org/1999/xlink" x="0px" y="0px"
	 width="48px" height="48px" viewBox="0 0 48 48" enable-background="new 0 0 48 48" xml:space="preserve">
<g id="icomoon-ignore">
	<line fill="#FFFFFF" stroke="#449FDB" x1="0" y1="0" x2="0" y2="0"/>
</g>
<path fill="#FFFFFF" d="M23.782,35.376c-0.238,0-0.478-0.086-0.668-0.258c-0.41-0.37-0.444-1-0.074-1.41L30.874,25l-7.834-8.706
	c-0.37-0.41-0.336-1.042,0.074-1.412c0.41-0.37,1.042-0.338,1.412,0.074l8.438,9.376c0.341,0.38,0.341,0.958,0,1.338l-8.438,9.376
	C24.328,35.264,24.054,35.376,23.782,35.376z"/>
<path fill="#FFFFFF" d="M15.782,35.376c-0.238,0-0.478-0.086-0.668-0.258c-0.41-0.37-0.444-1-0.074-1.41L22.874,25l-7.834-8.706
	c-0.37-0.41-0.336-1.042,0.074-1.412c0.41-0.37,1.042-0.338,1.412,0.074l8.438,9.376c0.341,0.38,0.341,0.958,0,1.338l-8.438,9.376
	C16.328,35.264,16.054,35.376,15.782,35.376z"/>
<path fill="#FFFFFF" d="M24,2c12.128,0,22,9.87,22,22c0,12.128-9.872,22-22,22C11.87,46,2,36.128,2,24C2,11.87,11.87,2,24,2z M24,0
	C10.746,0,0,10.746,0,24s10.746,24,24,24s24-10.746,24-24S37.254,0,24,0L24,0z"/>
</svg>
