<?xml version="1.0" encoding="utf-8"?>
<!-- Generator: Adobe Illustrator 16.0.0, SVG Export Plug-In . SVG Version: 6.00 Build 0)  -->
<!DOCTYPE svg PUBLIC "-//W3C//DTD SVG 1.1//EN" "http://www.w3.org/Graphics/SVG/1.1/DTD/svg11.dtd">
<svg version="1.1" id="Layer_1" xmlns="http://www.w3.org/2000/svg" xmlns:xlink="http://www.w3.org/1999/xlink" x="0px" y="0px"
	 width="60px" height="60px" viewBox="0 0 60 60" enable-background="new 0 0 60 60" xml:space="preserve">
<g id="icomoon-ignore">
	<line fill="#FFFFFF" stroke="#449FDB" x1="0" y1="0" x2="0" y2="0"/>
</g>
<path fill="#FFFFFF" d="M30.272,43.968c-0.274,0-0.546-0.114-0.744-0.332L18.982,31.918c-0.342-0.378-0.342-0.958,0-1.338
	l10.546-11.718c0.368-0.41,1-0.444,1.412-0.074c0.41,0.37,0.444,1.002,0.074,1.412L21.07,31.248l9.944,11.048
	c0.37,0.414,0.336,1.042-0.074,1.414C30.75,43.882,30.512,43.968,30.272,43.968z"/>
<path fill="#FFFFFF" d="M40.271,43.968c-0.273,0-0.543-0.114-0.744-0.332L28.982,31.918c-0.342-0.378-0.342-0.958,0-1.338
	l10.545-11.718c0.373-0.41,1-0.444,1.412-0.074c0.41,0.37,0.444,1.002,0.074,1.412L31.07,31.248l9.943,11.048
	c0.37,0.414,0.336,1.042-0.074,1.414C40.75,43.882,40.512,43.968,40.271,43.968z"/>
<path fill="#FFFFFF" d="M30,2c15.439,0,28,12.56,28,28c0,15.441-12.561,28-28,28C14.56,58,2,45.441,2,30C2,14.56,14.56,2,30,2z
	 M30,0C13.432,0,0,13.432,0,30c0,16.568,13.432,30,30,30c16.566,0,30-13.432,30-30C60,13.432,46.566,0,30,0L30,0z"/>
</svg>
