<?xml version="1.0" encoding="utf-8"?>
<!-- Generator: Adobe Illustrator 16.0.0, SVG Export Plug-In . SVG Version: 6.00 Build 0)  -->
<!DOCTYPE svg PUBLIC "-//W3C//DTD SVG 1.1//EN" "http://www.w3.org/Graphics/SVG/1.1/DTD/svg11.dtd">
<svg version="1.1" id="Layer_1" xmlns="http://www.w3.org/2000/svg" xmlns:xlink="http://www.w3.org/1999/xlink" x="0px" y="0px"
	 width="30px" height="30px" viewBox="0 0 30 30" enable-background="new 0 0 30 30" xml:space="preserve">
<g>
	<path fill="#FFFFFF" d="M13.41,21.125h-6c-0.275,0-0.5-0.225-0.5-0.5v-11c0-0.275,0.225-0.5,0.5-0.5h6c0.276,0,0.5,0.225,0.5,0.5
		v11C13.91,20.9,13.687,21.125,13.41,21.125z M7.91,20.125h5v-10h-5V20.125z"/>
	<path fill="#FFFFFF" d="M23.41,29.25c-0.111,0-0.225-0.038-0.313-0.109l-10-8.09c-0.117-0.095-0.187-0.236-0.187-0.389V9.339
		c0-0.15,0.068-0.294,0.187-0.389l10-8.089c0.148-0.121,0.354-0.146,0.528-0.063c0.175,0.083,0.285,0.259,0.285,0.451v27.5
		c0,0.192-0.11,0.368-0.285,0.451C23.559,29.234,23.482,29.25,23.41,29.25z M13.91,20.423l9,7.279V2.297l-9,7.28V20.423z"/>
	<path fill="#FFFFFF" d="M9.91,21.125H6.678c-3.589,0-6.296-2.58-6.296-6s2.707-6,6.296-6H9.91c0.276,0,0.5,0.225,0.5,0.5
		c0,0.276-0.224,0.5-0.5,0.5H6.678c-3.021,0-5.296,2.149-5.296,5c0,2.852,2.276,5,5.296,5H9.91c0.276,0,0.5,0.225,0.5,0.5
		S10.187,21.125,9.91,21.125z"/>
	<path fill="#FFFFFF" d="M23.104,18.698v-1c1.566,0,2.795-1.185,2.795-2.698c0-1.513-1.229-2.698-2.795-2.698v-1
		c2.129,0,3.795,1.625,3.795,3.698C26.898,17.074,25.23,18.698,23.104,18.698z"/>
	<path fill="#FFFFFF" d="M22.884,21.55v-1c3.216,0,5.734-2.438,5.734-5.55c0-3.111-2.519-5.55-5.734-5.55v-1
		c3.775,0,6.734,2.877,6.734,6.55S26.66,21.55,22.884,21.55z"/>
</g>
</svg>
