<?xml version="1.0" encoding="utf-8"?>
<!-- Generator: Adobe Illustrator 15.1.0, SVG Export Plug-In . SVG Version: 6.00 Build 0)  -->
<!DOCTYPE svg PUBLIC "-//W3C//DTD SVG 1.1//EN" "http://www.w3.org/Graphics/SVG/1.1/DTD/svg11.dtd">
<svg version="1.1" id="Layer_1" xmlns="http://www.w3.org/2000/svg" xmlns:xlink="http://www.w3.org/1999/xlink" x="0px" y="0px"
	 width="90px" height="90px" viewBox="0 0 90 90" enable-background="new 0 0 90 90" xml:space="preserve">
<g id="icomoon-ignore">
	<line fill="#FFFFFF" stroke="#449FDB" x1="0" y1="0" x2="0" y2="0"/>
</g>
<path fill="#FFFFFF" d="M61.536,42.444c-0.356,0-0.714-0.126-1.002-0.384L43.962,27.144L27.384,42.06
	c-0.618,0.555-1.563,0.504-2.118-0.111c-0.555-0.618-0.504-1.563,0.111-2.118l17.577-15.819c0.567-0.516,1.437-0.516,2.007,0
	l17.574,15.819c0.615,0.555,0.669,1.5,0.111,2.118C62.355,42.279,61.943,42.444,61.536,42.444z"/>
<path fill="#FFFFFF" d="M43.5,87.75c-0.828,0-1.5-0.675-1.5-1.5v-60c0-0.828,0.672-1.5,1.5-1.5s1.5,0.672,1.5,1.5v60
	C45,87.075,44.328,87.75,43.5,87.75z"/>
<path fill="#FFFFFF" d="M88.5,62.25H57c-0.825,0-1.5-0.675-1.5-1.5s0.675-1.5,1.5-1.5h30v-54H3v54h27c0.828,0,1.5,0.675,1.5,1.5
	s-0.672,1.5-1.5,1.5H1.5c-0.828,0-1.5-0.675-1.5-1.5v-57c0-0.828,0.672-1.5,1.5-1.5h87c0.825,0,1.5,0.672,1.5,1.5v57
	C90,61.575,89.325,62.25,88.5,62.25z"/>
</svg>
