<?xml version="1.0" encoding="utf-8"?>
<!-- Generator: Adobe Illustrator 16.0.0, SVG Export Plug-In . SVG Version: 6.00 Build 0)  -->
<!DOCTYPE svg PUBLIC "-//W3C//DTD SVG 1.1//EN" "http://www.w3.org/Graphics/SVG/1.1/DTD/svg11.dtd">
<svg version="1.1" id="Layer_1" xmlns="http://www.w3.org/2000/svg" xmlns:xlink="http://www.w3.org/1999/xlink" x="0px" y="0px"
	 width="60px" height="60px" viewBox="0 0 60 60" enable-background="new 0 0 60 60" xml:space="preserve">
<g id="icomoon-ignore">
	<line fill="#FFFFFF" stroke="#449FDB" x1="0" y1="0" x2="0" y2="0"/>
</g>
<path fill="#FFFFFF" d="M24.522,42.546c-0.164,0-0.326-0.04-0.474-0.12c-0.324-0.174-0.526-0.512-0.526-0.88V18.454
	c0-0.368,0.202-0.706,0.526-0.88c0.324-0.174,0.716-0.158,1.024,0.046l17.5,11.544c0.281,0.186,0.451,0.5,0.451,0.836
	s-0.168,0.65-0.451,0.834l-17.5,11.548C24.906,42.492,24.714,42.546,24.522,42.546L24.522,42.546z M25.522,20.31v19.377
	l14.684-9.689L25.522,20.31z"/>
<path fill="#FFFFFF" d="M30,2c15.439,0,28,12.56,28,28c0,15.441-12.561,28-28,28C14.56,58,2,45.441,2,30C2,14.56,14.56,2,30,2z
	 M30,0C13.432,0,0,13.432,0,30c0,16.568,13.432,30,30,30c16.57,0,30-13.432,30-30C60,13.432,46.566,0,30,0L30,0z"/>
</svg>
